<svg width="34" height="47" viewBox="0 0 34 47" fill="none" xmlns="http://www.w3.org/2000/svg">
<mask id="path-1-inside-1_7605_4107" fill="white">
<path d="M29.1431 21.8231C29.1431 29.0974 23.125 34.1895 16.5855 34.1895C10.0461 34.1895 4.02791 29.0974 4.02791 21.8231H0C0 30.0916 6.44466 36.9295 14.2162 38.1176V46.0709H18.9549V38.1176C26.7264 36.9295 33.1711 30.0916 33.1711 21.8231M13.7423 7.03188C13.7423 5.43152 15.0217 4.12213 16.5855 4.12213C18.1493 4.12213 19.4288 5.43152 19.4288 7.03188L19.4051 22.0655C19.4051 23.6659 18.1493 24.9753 16.5855 24.9753C15.0217 24.9753 13.7423 23.6659 13.7423 22.0655M16.5855 29.0974C18.4707 29.0974 20.2787 28.331 21.6117 26.9668C22.9447 25.6026 23.6936 23.7523 23.6936 21.8231V7.27435C23.6936 5.34507 22.9447 3.49481 21.6117 2.13061C20.2787 0.766403 18.4707 0 16.5855 0C14.7003 0 12.8924 0.766403 11.5594 2.13061C10.2263 3.49481 9.47744 5.34507 9.47744 7.27435V21.8231C9.47744 23.7523 10.2263 25.6026 11.5594 26.9668C12.8924 28.331 14.7003 29.0974 16.5855 29.0974Z"/>
</mask>
<path d="M29.1431 21.8231C29.1431 29.0974 23.125 34.1895 16.5855 34.1895C10.0461 34.1895 4.02791 29.0974 4.02791 21.8231H0C0 30.0916 6.44466 36.9295 14.2162 38.1176V46.0709H18.9549V38.1176C26.7264 36.9295 33.1711 30.0916 33.1711 21.8231M13.7423 7.03188C13.7423 5.43152 15.0217 4.12213 16.5855 4.12213C18.1493 4.12213 19.4288 5.43152 19.4288 7.03188L19.4051 22.0655C19.4051 23.6659 18.1493 24.9753 16.5855 24.9753C15.0217 24.9753 13.7423 23.6659 13.7423 22.0655M16.5855 29.0974C18.4707 29.0974 20.2787 28.331 21.6117 26.9668C22.9447 25.6026 23.6936 23.7523 23.6936 21.8231V7.27435C23.6936 5.34507 22.9447 3.49481 21.6117 2.13061C20.2787 0.766403 18.4707 0 16.5855 0C14.7003 0 12.8924 0.766403 11.5594 2.13061C10.2263 3.49481 9.47744 5.34507 9.47744 7.27435V21.8231C9.47744 23.7523 10.2263 25.6026 11.5594 26.9668C12.8924 28.331 14.7003 29.0974 16.5855 29.0974Z" fill="#A4A4A4"/>
<path d="M4.02791 21.8231H5.87075V19.9802H4.02791V21.8231ZM0 21.8231V19.9802H-1.84284V21.8231H0ZM14.2162 38.1176H16.059V36.5351L14.4947 36.2959L14.2162 38.1176ZM14.2162 46.0709H12.3733V47.9137H14.2162V46.0709ZM18.9549 46.0709V47.9137H20.7977V46.0709H18.9549ZM18.9549 38.1176L18.6764 36.2959L17.1121 36.5351V38.1176H18.9549ZM19.4288 7.03188L21.2716 7.03478V7.03188H19.4288ZM19.4051 22.0655L17.5622 22.0626V22.0655H19.4051ZM16.5855 29.0974V30.9402V29.0974ZM16.5855 0V-1.84284V0ZM9.47744 21.8231H7.63461H9.47744ZM29.1431 21.8231H27.3003C27.3003 27.9736 22.2166 32.3466 16.5855 32.3466V34.1895V36.0323C24.0334 36.0323 30.986 30.2212 30.986 21.8231H29.1431ZM16.5855 34.1895V32.3466C10.9545 32.3466 5.87075 27.9736 5.87075 21.8231H4.02791H2.18508C2.18508 30.2212 9.13769 36.0323 16.5855 36.0323V34.1895ZM4.02791 21.8231V19.9802H0V21.8231V23.6659H4.02791V21.8231ZM0 21.8231H-1.84284C-1.84284 31.0642 5.32944 38.6232 13.9377 39.9393L14.2162 38.1176L14.4947 36.2959C7.55988 35.2357 1.84284 29.119 1.84284 21.8231H0ZM14.2162 38.1176H12.3733V46.0709H14.2162H16.059V38.1176H14.2162ZM14.2162 46.0709V47.9137H18.9549V46.0709V44.2281H14.2162V46.0709ZM18.9549 46.0709H20.7977V38.1176H18.9549H17.1121V46.0709H18.9549ZM18.9549 38.1176L19.2334 39.9393C27.8416 38.6232 35.0139 31.0642 35.0139 21.8231H33.1711H31.3282C31.3282 29.119 25.6112 35.2357 18.6764 36.2959L18.9549 38.1176ZM13.7423 7.03188H15.5851C15.5851 6.40889 16.0795 5.96497 16.5855 5.96497V4.12213V2.2793C13.964 2.2793 11.8995 4.45415 11.8995 7.03188H13.7423ZM16.5855 4.12213V5.96497C17.0916 5.96497 17.5859 6.40889 17.5859 7.03188H19.4288H21.2716C21.2716 4.45415 19.207 2.2793 16.5855 2.2793V4.12213ZM19.4288 7.03188L17.5859 7.02897L17.5622 22.0626L19.4051 22.0655L21.2479 22.0684L21.2716 7.03478L19.4288 7.03188ZM19.4051 22.0655H17.5622C17.5622 22.7089 17.0718 23.1324 16.5855 23.1324V24.9753V26.8181C19.2268 26.8181 21.2479 24.6229 21.2479 22.0655H19.4051ZM16.5855 24.9753V23.1324C16.0795 23.1324 15.5851 22.6885 15.5851 22.0655H13.7423H11.8995C11.8995 24.6433 13.964 26.8181 16.5855 26.8181V24.9753ZM16.5855 29.0974V30.9402C18.9734 30.9402 21.2546 29.9691 22.9298 28.2547L21.6117 26.9668L20.2936 25.6789C19.3028 26.6929 17.968 27.2546 16.5855 27.2546V29.0974ZM21.6117 26.9668L22.9298 28.2547C24.6035 26.5418 25.5364 24.2275 25.5364 21.8231H23.6936H21.8508C21.8508 23.2772 21.2859 24.6634 20.2936 25.6789L21.6117 26.9668ZM23.6936 21.8231H25.5364V7.27435H23.6936H21.8508V21.8231H23.6936ZM23.6936 7.27435H25.5364C25.5364 4.8699 24.6035 2.55558 22.9298 0.842677L21.6117 2.13061L20.2936 3.41854C21.2859 4.43405 21.8508 5.82025 21.8508 7.27435H23.6936ZM21.6117 2.13061L22.9298 0.842677C21.2546 -0.871675 18.9734 -1.84284 16.5855 -1.84284V0V1.84284C17.968 1.84284 19.3028 2.40448 20.2936 3.41854L21.6117 2.13061ZM16.5855 0V-1.84284C14.1977 -1.84284 11.9165 -0.871675 10.2413 0.842677L11.5594 2.13061L12.8774 3.41854C13.8683 2.40448 15.203 1.84284 16.5855 1.84284V0ZM11.5594 2.13061L10.2413 0.842677C8.56754 2.55558 7.63461 4.8699 7.63461 7.27435H9.47744H11.3203C11.3203 5.82025 11.8851 4.43405 12.8774 3.41854L11.5594 2.13061ZM9.47744 7.27435H7.63461V21.8231H9.47744H11.3203V7.27435H9.47744ZM9.47744 21.8231H7.63461C7.63461 24.2275 8.56754 26.5418 10.2413 28.2547L11.5594 26.9668L12.8774 25.6789C11.8851 24.6634 11.3203 23.2772 11.3203 21.8231H9.47744ZM11.5594 26.9668L10.2413 28.2547C11.9165 29.9691 14.1977 30.9402 16.5855 30.9402V29.0974V27.2546C15.203 27.2546 13.8683 26.6929 12.8774 25.6789L11.5594 26.9668Z" fill="#A4A4A4" mask="url(#path-1-inside-1_7605_4107)"/>
</svg>
