<svg width="16" height="16" viewBox="0 0 16 16" fill="none" xmlns="http://www.w3.org/2000/svg">
<path d="M7.95998 12.8C8.23998 12.8 8.47678 12.7032 8.67038 12.5096C8.86398 12.316 8.96051 12.0794 8.95998 11.8C8.95944 11.5205 8.86291 11.2837 8.67038 11.0896C8.47784 10.8954 8.24104 10.7989 7.95998 10.8C7.67891 10.801 7.44238 10.8978 7.25038 11.0904C7.05838 11.2829 6.96158 11.5194 6.95998 11.8C6.95838 12.0805 7.05518 12.3173 7.25038 12.5104C7.44558 12.7034 7.68211 12.8 7.95998 12.8ZM7.23998 9.71998H8.71998C8.71998 9.27998 8.77011 8.93331 8.87038 8.67998C8.97064 8.42665 9.25384 8.07998 9.71997 7.63998C10.0666 7.29332 10.34 6.96318 10.54 6.64959C10.74 6.33599 10.84 5.95945 10.84 5.51999C10.84 4.77332 10.5666 4.19999 10.02 3.79999C9.47331 3.39999 8.82664 3.2 8.07998 3.2C7.31998 3.2 6.70345 3.39999 6.23038 3.79999C5.75732 4.19999 5.42719 4.67999 5.23999 5.23999L6.55998 5.75999C6.62665 5.51999 6.77678 5.25999 7.01038 4.97999C7.24398 4.69999 7.60051 4.55999 8.07998 4.55999C8.50664 4.55999 8.82664 4.67679 9.03998 4.91039C9.25331 5.14399 9.35997 5.40052 9.35997 5.67999C9.35997 5.94665 9.27997 6.19679 9.11997 6.43039C8.95998 6.66399 8.75998 6.88052 8.51998 7.07998C7.93331 7.59998 7.57331 7.99331 7.43998 8.25998C7.30665 8.52665 7.23998 9.01331 7.23998 9.71998ZM7.99998 16C6.89331 16 5.85332 15.7901 4.87999 15.3704C3.90666 14.9506 3.05999 14.3805 2.33999 13.66C1.62 12.9394 1.05013 12.0928 0.630399 11.12C0.210667 10.1472 0.000534344 9.10718 1.01266e-06 7.99998C-0.000532319 6.89278 0.2096 5.85279 0.630399 4.87999C1.0512 3.90719 1.62106 3.06053 2.33999 2.34C3.05893 1.61947 3.90559 1.0496 4.87999 0.630402C5.85439 0.211204 6.89438 0.0010707 7.99998 4.04039e-06C9.10558 -0.00106262 10.1456 0.20907 11.12 0.630402C12.0944 1.05173 12.941 1.6216 13.66 2.34C14.3789 3.0584 14.949 3.90506 15.3704 4.87999C15.7917 5.85492 16.0016 6.89492 16 7.99998C15.9984 9.10504 15.7882 10.145 15.3696 11.12C14.9509 12.0949 14.381 12.9416 13.66 13.66C12.9389 14.3784 12.0922 14.9485 11.12 15.3704C10.1477 15.7922 9.10771 16.0021 7.99998 16ZM7.99998 14.4C9.78664 14.4 11.3 13.78 12.54 12.54C13.78 11.3 14.4 9.78664 14.4 7.99998C14.4 6.21332 13.78 4.69999 12.54 3.45999C11.3 2.22 9.78664 1.6 7.99998 1.6C6.21332 1.6 4.69999 2.22 3.45999 3.45999C2.21999 4.69999 1.6 6.21332 1.6 7.99998C1.6 9.78664 2.21999 11.3 3.45999 12.54C4.69999 13.78 6.21332 14.4 7.99998 14.4Z" fill="white"/>
</svg>
